<svg xmlns="http://www.w3.org/2000/svg" width="256" height="256"><path fill="#1976D2" fill-opacity=".016" fill-rule="evenodd" d="M0 128.004v128.004l128.25-.254 128.25-.254.254-127.75L257.008 0H0zm.485.496c0 70.4.119 99.053.265 63.672s.146-92.98 0-128S.485 58.1.485 128.5"/><path fill="#1976D2" fill-opacity=".37" fill-rule="evenodd" d="M120.889 1.756c-1.986 1.038-24.462 14.004-49.946 28.815-47.849 27.809-54.026 32.096-55.28 38.365-.365 1.823-.653 28.57-.641 59.439.02 52.317.147 56.396 1.859 60.125 1.01 2.2 2.688 4.722 3.728 5.605S45 209.136 72.5 225.545c47.515 28.353 50.251 29.839 55.056 29.895 4.885.058 6.741-.949 55-29.82 27.469-16.434 51.014-30.834 52.323-32 5.143-4.584 5.121-4.298 5.121-66.628 0-56.036-.07-58.209-1.994-61.979-2.405-4.715-5.1-6.585-29.506-20.474-10.45-5.946-31.795-18.24-47.432-27.319-30.92-17.951-33.511-18.948-40.179-15.464M99 33.634c-14.575 8.539-34.375 20.045-44 25.567-9.625 5.523-18.963 11.135-20.75 12.471L31 74.102v53.294c0 49.489.125 53.407 1.75 54.87 3.725 3.354 92.866 55.732 94.85 55.733 1.155.001 8.355-3.769 16-8.377s28.409-17.007 46.143-27.553 32.696-20.021 33.25-21.056c1.082-2.021 1.449-102.762.389-106.714-.435-1.624-9.418-7.311-34.236-21.674-18.505-10.71-39.485-22.882-46.621-27.049s-13.887-7.552-15-7.523c-1.114.03-13.95 7.041-28.525 15.581M82.276 63.05C69.903 69.883 71 63.501 71 128.635V185l4.25.106c2.338.058 11.675.128 20.75.156l16.5.049 16-9.626c8.8-5.295 16.675-10.064 17.5-10.597.99-.64-8.112-.99-26.75-1.029L91 164v-51.941c0-28.568-.363-52.165-.806-52.439s-4.006 1.27-7.918 3.43m46.483-2.627c-5.496 1.962-8.439 4.152-11.789 8.777-5.604 7.736-7.38 18.927-4.666 29.392 2.231 8.601 4.937 11.002 27.41 24.327 30.679 18.191 30.015 17.729 31.361 21.808 1.134 3.435.796 13.838-.563 17.382-.335.871-13.211 9.159-28.614 18.416-15.402 9.258-28.693 17.335-29.533 17.95-1.257.919.194 2.13 8.164 6.811l9.692 5.694 25.837-15.515c17.326-10.404 26.853-16.742 28.919-19.24 4.417-5.341 6.023-11.801 6.023-24.228 0-12.552-1.599-18.263-6.476-23.137-1.849-1.848-14.413-9.822-27.919-17.72-23.256-13.6-24.589-14.539-25.192-17.75-.893-4.761.329-10.181 2.564-11.378 1.042-.557 8.82-1.012 17.309-1.012h15.417l-.188 5.5-.189 5.5H185V79.95c0-20.687-.411-20.967-30.7-20.906-15.549.031-22.873.427-25.541 1.379"/><path fill="#1976D2" fill-opacity=".462" fill-rule="evenodd" d="M124.451 1.018c-2.591.55-89.656 50.505-100.702 57.779-2.063 1.358-4.661 3.942-5.773 5.741-1.979 3.203-2.016 4.553-1.749 63.802l.273 60.53 3 3.158c1.65 1.737 24.15 15.773 50 31.191a71330 71330 0 0 1 50.118 29.907c1.943 1.168 5.005 1.874 8.127 1.874 4.784 0 7.263-1.347 55.382-30.089 27.705-16.549 51.365-31.175 52.576-32.502 1.212-1.327 2.672-4.099 3.245-6.161 1.372-4.942 1.424-113.368.056-118.292-.541-1.95-2.451-4.949-4.244-6.666-1.793-1.716-19.235-12.311-38.76-23.543S154.464 13.813 147.087 9.52c-14.133-8.223-17.678-9.554-22.636-8.502m-12.49 24.834C46.947 63.294 32.642 71.86 31.41 74.083c-1.072 1.935-1.323 12.391-1.256 52.417.045 27.5.367 51.322.714 52.939.694 3.227-3.332.657 62.132 39.66 17.875 10.65 33.4 19.366 34.5 19.368 1.678.004 24.368-13.22 86.5-50.414l9.5-5.687.259-54.32c.172-36.134-.086-54.735-.77-55.56-.566-.682-4.733-3.378-9.259-5.992s-25.124-14.572-45.773-26.575c-20.648-12.002-38.216-22.081-39.039-22.397-.859-.33-8.083 3.219-16.957 8.33M81.165 64.094c-5.628 3.121-7.664 4.856-8.75 7.455C71.253 74.33 71 84.778 71 129.968V185h41.03l17.147-10.25 17.146-10.25-28.162-.266L90 163.969v-51.985c0-28.591-.338-51.978-.75-51.971s-4.051 1.844-8.085 4.081m45.335-2.439C117.065 66.607 111.692 76.15 111.665 88c-.039 16.892 2.519 19.779 33.597 37.925 12.52 7.31 23.657 14.428 24.75 15.818 1.626 2.067 1.988 4.058 1.988 10.937 0 7.396-.271 8.679-2.25 10.637-1.238 1.224-14.175 9.365-28.75 18.092s-27.087 16.408-27.806 17.07c-1.044.963.418 2.233 7.327 6.362 4.747 2.838 9.097 5.159 9.666 5.159 1.804 0 50.001-29.379 52.867-32.226 1.509-1.5 3.798-4.875 5.086-7.5 2.074-4.228 2.343-6.203 2.351-17.274.01-14.424-1.563-20.1-6.86-24.751-1.782-1.565-13.565-8.848-26.186-16.186-12.62-7.338-23.732-14.024-24.695-14.858-1.284-1.112-1.75-3.03-1.75-7.205 0-9.091.855-9.5 19.853-9.5H166.5l.3 5.75.3 5.75h18.059l-.33-13.085-.329-13.084-3.266-2.916L177.968 60l-24.234.04c-20.061.033-24.751.311-27.234 1.615"/><path fill="#1976D2" fill-opacity=".976" fill-rule="evenodd" d="M102.998 12.819C58.129 38.69 23.379 59.281 21.121 61.335 15.977 66.016 16 65.723 16 127.5c0 60.832.057 61.646 4.612 65.667 1.038.917 24.574 15.204 52.3 31.75 54.879 32.748 53.868 32.288 61.878 28.18 6.594-3.381 97.61-58.149 99.543-59.899 4.717-4.268 4.667-3.567 4.667-65.68 0-61.919-.052-62.667-4.612-66.679-1.038-.914-15.163-9.298-31.388-18.631a36760 36760 0 0 1-50.474-29.089C135.193 3.104 130.853 1 127.524 1c-3.321 0-7.628 2.075-24.526 11.819m-8.067 22.478C77.644 45.36 56.628 57.56 48.23 62.407S32.294 72.17 31.48 73.332c-1.261 1.8-1.48 9.85-1.48 54.335v52.221l2.25 2.454C35 185.34 125.148 239 127.435 239c2.295 0 92.574-53.661 95.315-56.655l2.25-2.457v-51.295c0-32.566-.376-52.372-1.029-54.245-.565-1.623-2.253-3.65-3.75-4.506-1.496-.855-22.577-13.094-46.846-27.198S128.6 17 127.806 17s-15.587 8.234-32.875 18.297M82.5 63.62c-3.3 1.892-7.013 4.577-8.25 5.966L72 72.112V185h39.358l16.335-9.75 16.335-9.75-27.014-.266L90 164.968v-52.484c0-28.866-.338-52.444-.75-52.395-.412.05-3.45 1.638-6.75 3.531m45.739-2.285c-8.523 3.091-15.039 12.364-15.98 22.743-.843 9.3.479 16.317 4.062 21.561 2.787 4.078 6.2 6.425 27.679 19.043 13.475 7.915 25.287 15.325 26.25 16.466 1.393 1.65 1.75 3.973 1.75 11.374 0 8.972-.099 9.383-2.81 11.639-1.545 1.286-15.028 9.731-29.963 18.766l-27.153 16.427 8.213 4.944c4.517 2.72 8.682 5.127 9.255 5.35.573.224 12.498-6.51 26.5-14.964 33.818-20.418 34.453-21.256 33.796-44.644-.553-19.71.557-18.493-36.586-40.095-12.973-7.544-21.486-13.106-21.859-14.281-1.855-5.845-.572-12.962 2.646-14.685 1.006-.538 8.834-.979 17.395-.979H167v12h17V79.434c0-6.911-.463-13.431-1.03-14.489-2.366-4.421-5.531-4.95-29.17-4.869-14.472.049-23.445.491-25.561 1.259"/></svg>