<svg width="20" height="12" viewBox="0 0 20 12" fill="none" xmlns="http://www.w3.org/2000/svg">
<rect x="19" width="1" height="1" transform="rotate(90 19 0)" fill="black"/>
<rect x="18" width="1" height="1" transform="rotate(90 18 0)" fill="black"/>
<rect x="17" width="1" height="1" transform="rotate(90 17 0)" fill="black"/>
<rect x="16" width="1" height="1" transform="rotate(90 16 0)" fill="black"/>
<rect x="14" width="1" height="1" transform="rotate(90 14 0)" fill="black"/>
<rect x="5" width="1" height="1" transform="rotate(90 5 0)" fill="black"/>
<rect x="9" width="1" height="1" transform="rotate(90 9 0)" fill="black"/>
<rect x="13" width="1" height="1" transform="rotate(90 13 0)" fill="black"/>
<rect x="4" width="1" height="1" transform="rotate(90 4 0)" fill="black"/>
<rect x="8" width="1" height="1" transform="rotate(90 8 0)" fill="black"/>
<rect x="12" width="1" height="1" transform="rotate(90 12 0)" fill="black"/>
<rect x="3" width="1" height="1" transform="rotate(90 3 0)" fill="black"/>
<rect x="7" width="1" height="1" transform="rotate(90 7 0)" fill="black"/>
<rect x="11" width="1" height="1" transform="rotate(90 11 0)" fill="black"/>
<rect x="2" width="1" height="1" transform="rotate(90 2 0)" fill="black"/>
<rect x="6" width="1" height="1" transform="rotate(90 6 0)" fill="black"/>
<rect x="10" width="1" height="1" transform="rotate(90 10 0)" fill="black"/>
<rect x="19" y="11" width="1" height="1" transform="rotate(90 19 11)" fill="black"/>
<rect x="18" y="11" width="1" height="1" transform="rotate(90 18 11)" fill="black"/>
<rect x="17" y="11" width="1" height="1" transform="rotate(90 17 11)" fill="black"/>
<rect x="16" y="11" width="1" height="1" transform="rotate(90 16 11)" fill="black"/>
<rect x="14" y="11" width="1" height="1" transform="rotate(90 14 11)" fill="black"/>
<rect x="5" y="11" width="1" height="1" transform="rotate(90 5 11)" fill="black"/>
<rect x="9" y="11" width="1" height="1" transform="rotate(90 9 11)" fill="black"/>
<rect x="13" y="11" width="1" height="1" transform="rotate(90 13 11)" fill="black"/>
<rect x="4" y="11" width="1" height="1" transform="rotate(90 4 11)" fill="black"/>
<rect x="8" y="11" width="1" height="1" transform="rotate(90 8 11)" fill="black"/>
<rect x="12" y="11" width="1" height="1" transform="rotate(90 12 11)" fill="black"/>
<rect x="3" y="11" width="1" height="1" transform="rotate(90 3 11)" fill="black"/>
<rect x="7" y="11" width="1" height="1" transform="rotate(90 7 11)" fill="black"/>
<rect x="11" y="11" width="1" height="1" transform="rotate(90 11 11)" fill="black"/>
<rect x="15" width="1" height="1" transform="rotate(90 15 0)" fill="black"/>
<rect x="15" y="11" width="1" height="1" transform="rotate(90 15 11)" fill="black"/>
<rect x="2" y="11" width="1" height="1" transform="rotate(90 2 11)" fill="black"/>
<rect x="6" y="11" width="1" height="1" transform="rotate(90 6 11)" fill="black"/>
<rect x="10" y="11" width="1" height="1" transform="rotate(90 10 11)" fill="black"/>
<rect x="20" y="11" width="1" height="1" transform="rotate(180 20 11)" fill="black"/>
<rect x="20" y="10" width="1" height="1" transform="rotate(180 20 10)" fill="black"/>
<rect x="20" y="9" width="1" height="1" transform="rotate(180 20 9)" fill="black"/>
<rect x="20" y="8" width="1" height="1" transform="rotate(180 20 8)" fill="black"/>
<rect x="20" y="7" width="1" height="1" transform="rotate(180 20 7)" fill="black"/>
<rect x="20" y="6" width="1" height="1" transform="rotate(180 20 6)" fill="black"/>
<rect x="20" y="5" width="1" height="1" transform="rotate(180 20 5)" fill="black"/>
<rect x="20" y="4" width="1" height="1" transform="rotate(180 20 4)" fill="black"/>
<rect x="20" y="3" width="1" height="1" transform="rotate(180 20 3)" fill="black"/>
<rect x="20" y="2" width="1" height="1" transform="rotate(180 20 2)" fill="black"/>
<rect x="19" y="10" width="1" height="1" transform="rotate(90 19 10)" fill="black" fill-opacity="0.6"/>
<rect x="18" y="10" width="1" height="1" transform="rotate(90 18 10)" fill="black" fill-opacity="0.6"/>
<rect x="17" y="10" width="1" height="1" transform="rotate(90 17 10)" fill="black" fill-opacity="0.6"/>
<rect x="16" y="10" width="1" height="1" transform="rotate(90 16 10)" fill="black" fill-opacity="0.6"/>
<rect x="14" y="10" width="1" height="1" transform="rotate(90 14 10)" fill="black" fill-opacity="0.6"/>
<rect x="5" y="10" width="1" height="1" transform="rotate(90 5 10)" fill="black" fill-opacity="0.6"/>
<rect x="9" y="10" width="1" height="1" transform="rotate(90 9 10)" fill="black" fill-opacity="0.6"/>
<rect x="13" y="10" width="1" height="1" transform="rotate(90 13 10)" fill="black" fill-opacity="0.6"/>
<rect x="4" y="10" width="1" height="1" transform="rotate(90 4 10)" fill="black" fill-opacity="0.6"/>
<rect x="8" y="10" width="1" height="1" transform="rotate(90 8 10)" fill="black" fill-opacity="0.6"/>
<rect x="12" y="10" width="1" height="1" transform="rotate(90 12 10)" fill="black" fill-opacity="0.6"/>
<rect x="3" y="10" width="1" height="1" transform="rotate(90 3 10)" fill="black" fill-opacity="0.6"/>
<rect x="7" y="10" width="1" height="1" transform="rotate(90 7 10)" fill="black" fill-opacity="0.6"/>
<rect x="11" y="10" width="1" height="1" transform="rotate(90 11 10)" fill="black" fill-opacity="0.6"/>
<rect x="15" y="10" width="1" height="1" transform="rotate(90 15 10)" fill="black" fill-opacity="0.6"/>
<rect x="2" y="10" width="1" height="1" transform="rotate(90 2 10)" fill="black" fill-opacity="0.6"/>
<rect x="6" y="10" width="1" height="1" transform="rotate(90 6 10)" fill="black" fill-opacity="0.6"/>
<rect x="10" y="10" width="1" height="1" transform="rotate(90 10 10)" fill="black" fill-opacity="0.6"/>
<rect x="19" y="10" width="1" height="1" transform="rotate(180 19 10)" fill="black" fill-opacity="0.6"/>
<rect x="19" y="9" width="1" height="1" transform="rotate(180 19 9)" fill="black" fill-opacity="0.6"/>
<rect x="19" y="8" width="1" height="1" transform="rotate(180 19 8)" fill="black" fill-opacity="0.6"/>
<rect x="19" y="7" width="1" height="1" transform="rotate(180 19 7)" fill="black" fill-opacity="0.6"/>
<rect x="19" y="6" width="1" height="1" transform="rotate(180 19 6)" fill="black" fill-opacity="0.6"/>
<rect x="19" y="5" width="1" height="1" transform="rotate(180 19 5)" fill="black" fill-opacity="0.6"/>
<rect x="19" y="4" width="1" height="1" transform="rotate(180 19 4)" fill="black" fill-opacity="0.6"/>
<rect x="19" y="3" width="1" height="1" transform="rotate(180 19 3)" fill="black" fill-opacity="0.6"/>
<rect x="19" y="2" width="1" height="1" transform="rotate(180 19 2)" fill="black" fill-opacity="0.6"/>
<rect x="1" y="11" width="1" height="1" transform="rotate(180 1 11)" fill="black"/>
<rect x="1" y="10" width="1" height="1" transform="rotate(180 1 10)" fill="black"/>
<rect x="1" y="9" width="1" height="1" transform="rotate(180 1 9)" fill="black"/>
<rect x="1" y="8" width="1" height="1" transform="rotate(180 1 8)" fill="black"/>
<rect x="1" y="7" width="1" height="1" transform="rotate(180 1 7)" fill="black"/>
<rect x="1" y="6" width="1" height="1" transform="rotate(180 1 6)" fill="black"/>
<rect x="1" y="5" width="1" height="1" transform="rotate(180 1 5)" fill="black"/>
<rect x="1" y="4" width="1" height="1" transform="rotate(180 1 4)" fill="black"/>
<rect x="1" y="3" width="1" height="1" transform="rotate(180 1 3)" fill="black"/>
<rect x="1" y="2" width="1" height="1" transform="rotate(180 1 2)" fill="black"/>
</svg>
